<svg xmlns="http://www.w3.org/2000/svg" viewBox="0 0 1440 320"><path fill="#0099ff" fill-opacity="1" d="M0,160L6.2,186.7C12.3,213,25,267,37,272C49.2,277,62,235,74,192C86.2,149,98,107,111,96C123.1,85,135,107,148,122.7C160,139,172,149,185,160C196.9,171,209,181,222,192C233.8,203,246,213,258,202.7C270.8,192,283,160,295,138.7C307.7,117,320,107,332,133.3C344.6,160,357,224,369,218.7C381.5,213,394,139,406,96C418.5,53,431,43,443,42.7C455.4,43,468,53,480,80C492.3,107,505,149,517,160C529.2,171,542,149,554,165.3C566.2,181,578,235,591,229.3C603.1,224,615,160,628,117.3C640,75,652,53,665,80C676.9,107,689,181,702,186.7C713.8,192,726,128,738,117.3C750.8,107,763,149,775,154.7C787.7,160,800,128,812,149.3C824.6,171,837,245,849,256C861.5,267,874,213,886,170.7C898.5,128,911,96,923,117.3C935.4,139,948,213,960,256C972.3,299,985,309,997,282.7C1009.2,256,1022,192,1034,181.3C1046.2,171,1058,213,1071,240C1083.1,267,1095,277,1108,245.3C1120,213,1132,139,1145,117.3C1156.9,96,1169,128,1182,149.3C1193.8,171,1206,181,1218,176C1230.8,171,1243,149,1255,170.7C1267.7,192,1280,256,1292,256C1304.6,256,1317,192,1329,186.7C1341.5,181,1354,235,1366,229.3C1378.5,224,1391,160,1403,160C1415.4,160,1428,224,1434,256L1440,288L1440,0L1433.8,0C1427.7,0,1415,0,1403,0C1390.8,0,1378,0,1366,0C1353.8,0,1342,0,1329,0C1316.9,0,1305,0,1292,0C1280,0,1268,0,1255,0C1243.1,0,1231,0,1218,0C1206.2,0,1194,0,1182,0C1169.2,0,1157,0,1145,0C1132.3,0,1120,0,1108,0C1095.4,0,1083,0,1071,0C1058.5,0,1046,0,1034,0C1021.5,0,1009,0,997,0C984.6,0,972,0,960,0C947.7,0,935,0,923,0C910.8,0,898,0,886,0C873.8,0,862,0,849,0C836.9,0,825,0,812,0C800,0,788,0,775,0C763.1,0,751,0,738,0C726.2,0,714,0,702,0C689.2,0,677,0,665,0C652.3,0,640,0,628,0C615.4,0,603,0,591,0C578.5,0,566,0,554,0C541.5,0,529,0,517,0C504.6,0,492,0,480,0C467.7,0,455,0,443,0C430.8,0,418,0,406,0C393.8,0,382,0,369,0C356.9,0,345,0,332,0C320,0,308,0,295,0C283.1,0,271,0,258,0C246.2,0,234,0,222,0C209.2,0,197,0,185,0C172.3,0,160,0,148,0C135.4,0,123,0,111,0C98.5,0,86,0,74,0C61.5,0,49,0,37,0C24.6,0,12,0,6,0L0,0Z"></path></svg>